# xmcd CD database file
#
# Track frame offsets:
#	150
#	20210
#	55900
#	88355
#	136825
#	167190
#	207722
#	245025
#
# Disc length: 3491 seconds
#
# Revision: 0
# Processed by: cddbd v1.5PL3 Copyright (c) Steve Scherf et al.
# Submitted via: CDex 1.51
#
DISCID=7c0da108
DTITLE=Various Artist - from worlbeat to bluenote
DYEAR=1996
DGENRE=Jazz
TTITLE0=TheNaguru Adungu Troupe - Oro ma wangini rimu urombo
TTITLE1=David Friesen - Early morning rises
TTITLE2=Valdinho Langer - Pu San
TTITLE3=Malamini Jobarteh - Gambia, India, Germany
TTITLE4=David Friesen - Islands
TTITLE5=Arkestra - Erwachen
TTITLE6=Rüdiger Oppermann - Dreaming of you
TTITLE7=Valdinho Langer/David Friesen - Sunset
EXTD=YEAR: 1996
EXTT0=
EXTT1=
EXTT2=
EXTT3=
EXTT4=
EXTT5=
EXTT6=
EXTT7=
PLAYORDER=
